<?xml version="1.0" encoding="UTF-8" standalone="no"?>
<!-- Created with Inkscape (http://www.inkscape.org/) -->

<svg
   width="29.096256mm"
   height="10.975676mm"
   viewBox="0 0 29.096255 10.975676"
   version="1.1"
   id="svg5"
   inkscape:version="1.2.2 (732a01da63, 2022-12-09)"
   sodipodi:docname="flipper.svg"
   xmlns:inkscape="http://www.inkscape.org/namespaces/inkscape"
   xmlns:sodipodi="http://sodipodi.sourceforge.net/DTD/sodipodi-0.dtd"
   xmlns="http://www.w3.org/2000/svg"
   xmlns:svg="http://www.w3.org/2000/svg">
  <sodipodi:namedview
     id="namedview7"
     pagecolor="#ffffff"
     bordercolor="#000000"
     borderopacity="0.25"
     inkscape:showpageshadow="2"
     inkscape:pageopacity="0.0"
     inkscape:pagecheckerboard="0"
     inkscape:deskcolor="#d1d1d1"
     inkscape:document-units="px"
     showgrid="false"
     inkscape:zoom="2.7973568"
     inkscape:cx="-61.486615"
     inkscape:cy="79.360632"
     inkscape:window-width="1920"
     inkscape:window-height="1017"
     inkscape:window-x="1912"
     inkscape:window-y="-8"
     inkscape:window-maximized="1"
     inkscape:current-layer="layer1" />
  <defs
     id="defs2" />
  <g
     inkscape:label="Layer 1"
     inkscape:groupmode="layer"
     id="layer1"
     transform="translate(-88.821793,-73.898258)">
    <g
       id="g5708"
       transform="matrix(0.58438059,0,0,0.58438059,56.558058,30.697026)">
      <circle
         style="fill:none;stroke:#000000;stroke-width:0.269821;stroke-dasharray:none;stroke-opacity:1"
         id="path3225"
         cx="64.600922"
         cy="83.317398"
         r="1.2380096" />
      <path
         id="path3229"
         style="fill:none;stroke:#000000;stroke-width:0.269917;stroke-dasharray:none;stroke-opacity:1"
         d="M 101.35704,87.453236 64.432149,92.571763 M 101.29661,79.172018 64.364572,74.064512 m 0.23635,18.50879 a 9.2559042,9.2559042 0 0 1 -8.015848,-4.627952 9.2559042,9.2559042 0 0 1 -10e-7,-9.255904 9.2559042,9.2559042 0 0 1 8.015849,-4.627952 m 36.437508,5.079843 a 4.1920128,4.1920128 0 0 1 3.8265,4.139479 4.1920128,4.1920128 0 0 1 -3.75367,4.205631" />
    </g>
  </g>
  <g
     inkscape:groupmode="layer"
     id="layer3"
     inkscape:label="mechanics"
     transform="translate(-88.821793,-73.898258)" />
</svg>
